<svg width="600" height="592" xmlns="http://www.w3.org/2000/svg">
 <!-- Created with Method Draw - http://github.com/duopixel/Method-Draw/ -->

 <g>
  <title>background</title>
  <rect x="-1" y="-1" width="602" height="594" id="canvas_background" fill="none"/>
  <g wfd-invisible="true" id="canvasGrid" display="none">
   <rect id="svg_1" width="580" height="400" x="1" y="1" stroke-width="0" fill="url(#gridpattern)"/>
  </g>
 </g>
 <g>
  <title>Layer 1</title>
  <!-- Created with Method Draw - http://github.com/duopixel/Method-Draw/ -->
  <g id="svg_47" stroke="null">
   <g id="svg_44" stroke="null" transform="matrix(0.690578094223551,0,0,0.690578094223551,-3585.404604394367,-2416.825848302964) ">
    <title>background</title>
    <rect fill="none" id="svg_42" height="602" width="602" y="3493.866382" x="5189.032899" stroke="null" transform="matrix(1.0028703889362884,0,0,1.0028703889362884,-5206.791468505447,-3509.7595951305925) "/>
    <g wfd-invisible="true" display="none" id="svg_41" stroke="null" transform="matrix(1.0028703889362884,0,0,1.0028703889362884,-5206.791468505447,-3509.7595951305925) ">
     <rect fill="url(#gridpattern)" stroke-width="0" y="3495.866382" x="5191.032899" height="400" width="580" id="svg_45" stroke="null"/>
    </g>
   </g>
   <g transform="matrix(1.0028703889362884,0,0,1.0028703889362884,-5206.791468505447,-3509.7595951305925) " id="svg_23" stroke="null">
    <path fill="none" id="svg_39" d="m5223.74641,3818.36747l0,272.42012l95.45844,0l0,-203.33394c-40.86348,-8.29667 -75.30869,-34.06299 -95.45844,-69.08618zm0,0" stroke="null"/>
    <path fill="none" id="svg_38" d="m5662.85523,3887.45365l0,203.33394l95.45844,0l0,-272.42012c-20.14975,35.02319 -54.59496,60.78951 -95.45844,69.08618zm0,0" stroke="null"/>
    <path id="svg_37" d="m5786.9512,3747.13709c0,-84.21131 -68.52219,-152.7335 -152.73351,-152.7335c-20.25695,0 -39.56771,4.0458 -57.27506,11.24712l0,-30.33881l-19.09169,0l0,39.75881c-6.69327,3.88266 -13.08825,8.20812 -19.09169,13.02765l0,-71.87815l-19.09168,0l0,90.23806c-7.26659,8.25473 -13.72682,17.21794 -19.09169,26.90828l0,-174.4214l-19.09169,0l0,174.41208c-5.36487,-9.69034 -11.8251,-18.65355 -19.09169,-26.90828l0,-90.22874l-19.09169,0l0,71.87815c-6.00344,-4.81953 -12.3984,-9.14499 -19.09168,-13.02765l0,-39.75881l-19.09169,0l0,30.33881c-17.70735,-7.20132 -37.01812,-11.24712 -57.27507,-11.24712c-84.21131,0 -152.7335,68.52219 -152.7335,152.7335c0,33.08418 10.69247,63.66071 28.63753,88.69991l0,130.8545l19.09169,0l0,-108.92889c5.95683,5.65386 12.28655,10.91153 19.09169,15.56327l0,131.549l19.09169,0l0,-120.6095c6.15726,3.0157 12.50561,5.68649 19.09168,7.8632l0,160.47552l19.09169,0l0,-155.52082c9.28949,1.77586 18.84466,2.78732 28.63753,2.78732c1.84112,0 3.68689,-0.02797 5.51869,-0.09322l-0.67119,-19.08237c-1.61272,0.05593 -3.22544,0.0839 -4.8475,0.0839c-70.46585,0 -128.23032,-54.86064 -133.15706,-124.09597l53.15469,0l19.73025,-39.46983l29.54177,118.14846l40.59315,-101.47586l27.66337,64.56029l25.64979,-51.30891l70.46586,0c0,12.13273 -1.63137,24.17224 -4.83818,35.76895l9.74627,2.68943c0.06526,0.24237 0.10255,0.48942 0.17246,0.72712l1.25849,-0.3356l7.23396,2.00426c0.3822,-1.38433 0.66187,-2.78731 1.00212,-4.18096l8.96321,-2.36316c-2.95977,-11.12129 -4.44664,-22.66206 -4.44664,-34.31004c0,-73.69597 59.94585,-133.64182 133.64181,-133.64182s133.64182,59.94585 133.64182,133.64182s-59.94585,133.64182 -133.64182,133.64182c-1.64069,0 -3.27206,-0.02797 -4.89877,-0.0839l-0.66652,19.08237c1.84111,0.06525 3.70554,0.09322 5.56529,0.09322c9.79288,0 19.34805,-1.01146 28.63754,-2.78732l0,155.52082l19.09168,0l0,-160.47552c6.58608,-2.17671 12.93443,-4.8475 19.09169,-7.85388l0,120.60018l19.09169,0l0,-131.56298c6.80515,-4.64708 13.13485,-9.89543 19.09169,-15.55861l0,108.93821l19.09169,0l0,-130.8545c17.94506,-25.0392 28.63753,-55.61573 28.63753,-88.69991zm-387.73466,-19.09169l-12.52427,25.05784l-29.61168,-69.08151l-35.77361,89.44101l-27.73329,-110.95179l-37.54481,75.0803l-41.34358,0c4.92675,-69.23534 62.69121,-124.09597 133.15707,-124.09597c67.19379,0 122.80953,49.89661 132.11299,114.55012l-80.73882,0z" stroke="null"/>
    <path id="svg_36" fill="none" d="m5491.03003,4081.24163c-84.21131,0 -152.7335,-68.52219 -152.7335,-152.7335s68.52219,-152.73351 152.7335,-152.73351s152.73351,68.5222 152.73351,152.73351s-68.52219,152.7335 -152.73351,152.7335zm0,0" stroke="null"/>
    <path id="svg_35" d="m5702.96828,3746.13709l-68.75059,-103.12588l-68.75059,103.12588l68.75059,103.12588l68.75059,-103.12588zm-59.20474,25.97607l24.34936,-8.1149l-24.34936,36.51938l0,-28.40448zm0,-20.13577l0,-60.23483l32.84646,49.27669l-32.84646,10.95814zm-19.09169,0l-32.84646,-10.94882l32.84646,-49.27203l0,60.22085zm0,20.13577l0,28.40448l-24.34936,-36.5287l24.34936,8.12422zm0,0" stroke="null"/>
    <path id="svg_34" d="m5443.30081,3518.03683l19.09169,0l0,19.09169l-19.09169,0l0,-19.09169zm0,0" stroke="null"/>
    <path id="svg_33" d="m5481.48419,3842.59553l0,19.09169l-28.63753,0l0,133.64182l28.63753,0l0,19.09169l19.09169,0l0,-19.09169c21.05865,0 38.18337,-17.12472 38.18337,-38.18338c0,-11.38696 -5.01063,-21.64129 -12.95308,-28.63753c7.94245,-6.99625 12.95308,-17.25057 12.95308,-28.63753c0,-21.05866 -17.12472,-38.18338 -38.18337,-38.18338l0,-19.09169l-19.09169,0zm19.09169,133.64182l-28.63754,0l0,-38.18338l28.63754,0c10.52933,0 19.09168,8.56236 19.09168,19.09169s-8.56236,19.09169 -19.09168,19.09169zm19.09168,-76.36675c0,10.52933 -8.56236,19.09168 -19.09168,19.09168l-28.63754,0l0,-38.18337l28.63754,0c10.52933,0 19.09168,8.56236 19.09168,19.09169zm0,0" stroke="null"/>
    <path id="svg_32" d="m5491.03003,3813.958c-26.7265,0 -52.74917,9.41999 -73.29511,26.53539l12.23061,14.66368c17.1154,-14.24884 38.79398,-22.10738 61.0645,-22.10738c52.63731,0 95.45844,42.82113 95.45844,95.45844c0,22.27052 -7.85854,43.95842 -22.10738,61.0645l14.65436,12.23061c17.12472,-20.53662 26.54471,-46.55929 26.54471,-73.29511c0,-63.16664 -51.38349,-114.55013 -114.55013,-114.55013zm0,0" stroke="null"/>
    <path id="svg_31" d="m5491.03003,4023.96657c-52.63731,0 -95.45844,-42.82113 -95.45844,-95.45844c0,-22.27053 7.85855,-43.95842 22.10739,-61.0645l-14.65436,-12.23062c-17.12472,20.53662 -26.54472,46.5593 -26.54472,73.29512c0,63.16664 51.38349,114.55013 114.55013,114.55013c26.7265,0 52.74918,-9.42 73.29512,-26.5354l-12.23061,-14.66368c-17.11541,14.24884 -38.79398,22.10739 -61.06451,22.10739zm0,0" stroke="null"/>
    <path id="svg_30" d="m5519.66756,3518.03683l19.09169,0l0,19.09169l-19.09169,0l0,-19.09169zm0,0" stroke="null"/>
    <path id="svg_29" d="m5223.7464,3985.78319l19.09169,0l0,19.09169l-19.09169,0l0,-19.09169zm0,0" stroke="null"/>
    <path id="svg_28" d="m5261.92978,4023.96657l19.09168,0l0,19.09169l-19.09168,0l0,-19.09169zm0,0" stroke="null"/>
    <path id="svg_27" d="m5300.11315,4071.69579l19.09169,0l0,19.09169l-19.09169,0l0,-19.09169zm0,0" stroke="null"/>
    <path id="svg_26" d="m5739.22198,3985.78319l19.09169,0l0,19.09169l-19.09169,0l0,-19.09169zm0,0" stroke="null"/>
    <path id="svg_25" d="m5701.0386,4023.96657l19.09169,0l0,19.09169l-19.09169,0l0,-19.09169zm0,0" stroke="null"/>
    <path id="svg_24" d="m5662.85523,4071.69579l19.09168,0l0,19.09169l-19.09168,0l0,-19.09169zm0,0" stroke="null"/>
   </g>
  </g>
 </g>
</svg>